<?xml version="1.0" encoding="utf-8"?>

<!DOCTYPE svg PUBLIC "-//W3C//DTD SVG 1.1//EN" "http://www.w3.org/Graphics/SVG/1.1/DTD/svg11.dtd">
<!-- Uploaded to: SVG Repo, www.svgrepo.com, Generator: SVG Repo Mixer Tools -->
<svg height="800px" width="800px" version="1.1" id="_x32_" xmlns="http://www.w3.org/2000/svg" xmlns:xlink="http://www.w3.org/1999/xlink" 
	 viewBox="0 0 512 512"  xml:space="preserve">
<style type="text/css">
	.st0{fill:#000000;}
</style>
<g>
	<path class="st0" d="M310.939,209.702c0-15.127-6.174-28.954-16.093-38.846c-9.91-9.919-23.719-16.102-38.856-16.092
		c-15.118-0.01-28.954,6.174-38.838,16.092c-9.919,9.892-16.093,23.72-16.093,38.846v19.333h-17.726v76.186
		c0,19.414,15.741,35.155,35.164,35.155h75.004c19.423,0,35.164-15.741,35.164-35.155v-76.186h-17.726V209.702z M284.278,229.036
		h-56.555v-19.333c0-3.934,0.803-7.627,2.22-11.011c2.13-5.045,5.74-9.396,10.253-12.446c4.531-3.06,9.901-4.812,15.795-4.82
		c3.944,0,7.636,0.785,11.002,2.211c5.072,2.14,9.405,5.75,12.456,10.272c3.042,4.512,4.81,9.874,4.829,15.794V229.036z"/>
	<path class="st0" d="M276.497,36.418V0l-83.172,55.454l83.172,48.522V73.613c42.863,4.721,81.24,24,110.204,52.936
		c33.476,33.503,54.126,79.597,54.136,130.701h36.969C477.797,141.658,389.391,46.78,276.497,36.418z"/>
	<path class="st0" d="M237.976,438.423c-92.55-8.935-165.54-86.304-166.813-181.426l-36.969,0.506
		c1.597,115.574,91.259,209.207,204.278,218.043L238.969,512l82.414-56.582l-83.822-47.385L237.976,438.423z"/>
</g>
</svg>